0
SECTION
2
HEADER
9
$INSUNITS
70
4
9
$ACADVER
1
AC1014
9
$HANDSEED
5
FFFF
0
ENDSEC
0
SECTION
2
TABLES
0
TABLE
2
VPORT
5
8
100
AcDbSymbolTable
0
ENDTAB
0
TABLE
2
LTYPE
5
5
100
AcDbSymbolTable
0
LTYPE
5
14
100
AcDbSymbolTableRecord
100
AcDbLinetypeTableRecord
2
BYBLOCK
70
0
0
LTYPE
5
15
100
AcDbSymbolTableRecord
100
AcDbLinetypeTableRecord
2
BYLAYER
70
0
0
ENDTAB
0
TABLE
2
LAYER
5
2
100
AcDbSymbolTable
70
2
0
LAYER
5
50
100
AcDbSymbolTableRecord
100
AcDbLayerTableRecord
2
0
70
0
6
CONTINUOUS
0
ENDTAB
0
TABLE
2
STYLE
5
3
100
AcDbSymbolTable
70
1
0
STYLE
5
11
100
AcDbSymbolTableRecord
100
AcDbTextStyleTableRecord
2
STANDARD
70
0
0
ENDTAB
0
TABLE
2
VIEW
5
6
100
AcDbSymbolTable
70
0
0
ENDTAB
0
TABLE
2
UCS
5
7
100
AcDbSymbolTable
70
0
0
ENDTAB
0
TABLE
2
APPID
5
9
100
AcDbSymbolTable
70
2
0
APPID
5
12
100
AcDbSymbolTableRecord
100
AcDbRegAppTableRecord
2
ACAD
70
0
0
ENDTAB
0
TABLE
2
DIMSTYLE
5
A
100
AcDbSymbolTable
70
1
0
ENDTAB
0
TABLE
2
BLOCK_RECORD
5
1
100
AcDbSymbolTable
70
1
0
BLOCK_RECORD
5
1F
100
AcDbSymbolTableRecord
100
AcDbBlockTableRecord
2
*MODEL_SPACE
0
BLOCK_RECORD
5
1B
100
AcDbSymbolTableRecord
100
AcDbBlockTableRecord
2
*PAPER_SPACE
0
ENDTAB
0
ENDSEC
0
SECTION
2
BLOCKS
0
BLOCK
5
20
100
AcDbEntity
100
AcDbBlockBegin
2
*MODEL_SPACE
0
ENDBLK
5
21
100
AcDbEntity
100
AcDbBlockEnd
0
BLOCK
5
1C
100
AcDbEntity
100
AcDbBlockBegin
2
*PAPER_SPACE
0
ENDBLK
5
1D
100
AcDbEntity
100
AcDbBlockEnd
0
ENDSEC
0
SECTION
2
ENTITIES
0
LWPOLYLINE
5
100
100
AcDbEntity
8
0
100
AcDbPolyline
90
4
70
1
43
0.0
10
201.91221357921009
20
-153.59649314563185
10
206.70081357888049
20
-140.44169314453023
10
219.85691357968122
20
-145.22889314329757
10
215.06831358163609
20
-158.38509314528687
0
LWPOLYLINE
5
101
100
AcDbEntity
8
0
100
AcDbPolyline
90
56
70
1
43
0.0
10
149.65397857950614
20
-234.90999861556716
10
137.18359438776528
20
-247.38038278686167
42
0.41421356235006473
10
137.18359438750318
20
-250.20880993238364
10
150.15906650950637
20
-263.18428203356689
10
159.56380638150654
20
-279.47376932356718
10
164.3909690858149
20
-297.48898585249316
42
0.4142135624608354
10
166.84045884784015
20
-298.90319942546563
10
192.02847190650627
20
-292.15409165156706
10
199.04030179750632
20
-311.41422904956693
10
196.4410553874244
20
-312.35973693453172
42
0.41431021591530615
10
195.24546549363509
20
-314.92356313796847
10
201.08110159895645
20
-330.94954219250582
42
0.41421356225347755
10
203.64470208999919
20
-332.14451191527894
10
255.46638525425357
20
-313.27437086063458
42
0.41419062691494118
10
256.66140855766128
20
-310.71091753243468
10
250.83057208550599
20
-294.69421845156705
10
253.57630087826439
20
-293.69509809418673
42
0.41964874373887806
10
254.75885821055113
20
-291.09707596663941
10
248.64484347750604
20
-275.21651572556709
10
251.39009722782416
20
-274.21732734089289
42
0.41420965354408035
10
252.58545317460658
20
-271.65392773981915
10
246.75049890823465
20
-255.6218208535455
42
0.41421356251987901
10
244.18709017677631
20
-254.42643982582385
10
241.58737553350605
20
-255.37261716956718
10
235.75967347202999
20
-239.3604363835689
42
0.41422623060580854
10
233.19618345499205
20
-238.16508494212556
10
230.60079179950611
20
-239.10981604256733
10
224.4913853685064
20
-222.32362502456726
10
224.49138536850626
20
-184.5762644795673
10
230.60079179950611
20
-167.79007346156743
10
233.19618345536398
20
-168.7348045618489
42
0.41422623055281765
10
235.75967347155284
20
-167.53945312046363
10
241.58737553350608
20
-151.52727233456744
10
244.18709017760975
20
-152.47344967812842
42
0.41421356238437351
10
246.7504989075222
20
-151.27806865054745
10
252.58545317456267
20
-135.2459617643861
42
0.41420965343143235
10
251.39009722863634
20
-132.68256216349741
10
248.64484347750602
20
-131.68337377856756
10
254.7588582112154
20
-115.80281353806316
42
0.41964874390176521
10
253.57630087780899
20
-113.2047914088116
10
250.83057208550602
20
-112.20567105256761
10
256.66140855742896
20
-96.18897197218628
42
0.41419062698822923
10
255.46638525430092
20
-93.62551864347563
10
203.64470209043048
20
-74.755377589012667
42
0.41421356230638634
10
201.08110159855755
20
-75.950347311379403
10
195.24546549393804
20
-91.976326366679402
42
0.41431021582291194
10
196.44105538717852
20
-94.540152569540624
10
199.04030179750617
20
-95.485660454567579
10
192.02847190650627
20
-114.74579785256758
10
166.84045884747053
20
-107.99669007888642
42
0.41421356243083446
10
164.39096908642782
20
-109.41090365190493
10
159.56380638150645
20
-127.42612018056752
10
150.15906650950609
20
-143.71560747056733
10
137.18359438776602
20
-156.69107957186125
42
0.41421356235023399
10
137.18359438750323
20
-159.5195067173839
10
149.65397857950632
20
-171.9898908885674
0
LWPOLYLINE
5
102
100
AcDbEntity
8
0
100
AcDbPolyline
90
4
70
1
43
0.0
10
199.08291357915601
20
-91.748593144987979
10
203.87041358082442
20
-78.593833144738525
10
217.02661357863505
20
-83.381093146824554
10
212.23901358045697
20
-96.537293144835417
0
LWPOLYLINE
5
103
100
AcDbEntity
8
0
100
AcDbPolyline
90
46
70
1
43
0.0
10
244.02196678398977
20
-250.36622478969005
10
239.51846318811252
20
-237.9924086970573
42
0.35457609660695166
10
233.03566396878409
20
-234.10419551460308
10
228.49138536850609
20
-221.6183461142073
10
228.49138536850609
20
-185.28154338992732
10
233.03566396888939
20
-172.7956939892423
42
0.35457609658730088
10
239.51846318754332
20
-168.90748080722798
10
244.02196678404718
20
-156.53366471396569
42
0.35479039055991163
10
250.50928862339063
20
-152.64609633764741
10
256.34424289065771
20
-136.6139894508637
42
0.35873981085959933
10
253.80162318349221
20
-129.42215433558741
10
258.49175944549017
20
-117.23998028410919
42
0.36745256298758772
10
255.92434235372809
20
-109.90664660018052
10
260.42008589101243
20
-97.557308401138002
42
0.41419062703614973
10
256.83501600864383
20
-89.866948471314771
10
205.01333284463522
20
-70.99680741680146
42
0.41421356232873935
10
197.32253142650131
20
-74.581716556748901
10
191.48689532167421
20
-90.607695612619196
42
0.3548025473286725
10
193.95686568747919
20
-97.756179522714888
10
189.52359542496959
20
-109.93351350053992
10
167.87573502404413
20
-104.13298678812895
42
0.41421356241876756
10
160.52726579553021
20
-108.37562747585444
10
155.8363997711987
20
-125.88217781008072
10
146.95826988952919
20
-141.25954984107022
10
134.35516727348821
20
-153.86265245772012
42
0.41421356233500189
10
134.35516727292071
20
-162.34793383122027
10
145.65397857950632
20
-173.6467451380359
10
145.65397857950632
20
-233.25314436613368
10
134.35516727348474
20
-244.55195567272335
42
0.41421356233474066
10
134.35516727292037
20
-253.03723704621979
10
146.95826988954374
20
-265.64033966308966
10
155.83639977116269
20
-281.0177116939916
10
160.52726579501663
20
-298.52426202891411
42
0.41421356246876767
10
167.87573502557561
20
-302.76690271591173
10
189.52359542498428
20
-296.96637600363516
10
193.95686568746882
20
-309.14370998139128
42
0.35480254741987877
10
191.48689532188942
20
-316.29219389345167
10
197.32253142676655
20
-332.31817294676887
42
0.41421356224055289
10
205.01333284247849
20
-335.90308208811842
10
256.83501600846091
20
-317.03294103284469
42
0.41419062691401781
10
260.42008589197883
20
-309.34258110549928
10
255.92434235342427
20
-296.99324290308482
42
0.36745256291063927
10
258.49175944524472
20
-289.65990922168123
10
253.80162318331372
20
-277.47773516861758
42
0.35873981084959178
10
256.34424289081289
20
-270.28590005364725
10
250.50928862438309
20
-254.25379316721484
42
0.35479039060838136
0
LWPOLYLINE
5
104
100
AcDbEntity
8
0
100
AcDbPolyline
90
4
70
1
43
0.0
10
184.01151357878675
20
-259.81889635743727
10
197.16771358077611
20
-255.03029635939203
10
201.95491357954339
20
-268.18639636019282
10
188.80011357844177
20
-272.97499635986321
0
LWPOLYLINE
5
105
100
AcDbEntity
8
0
100
AcDbPolyline
90
4
70
1
43
0.0
10
252.8277135800713
20
-96.411893143730921
10
248.04071357781325
20
-109.56799314420273
10
234.88451357979415
20
-104.78069314291477
10
239.6727135817963
20
-91.624593145450731
0
LWPOLYLINE
5
106
100
AcDbEntity
8
0
100
AcDbPolyline
90
4
70
1
43
0.0
10
184.01151357878683
20
-147.08099314669738
10
188.80011357844182
20
-133.92489314427138
10
201.95491357954342
20
-138.71349314394178
10
197.16771358077611
20
-151.86959314474257
0
LWPOLYLINE
5
107
100
AcDbEntity
8
0
100
AcDbPolyline
90
4
70
1
43
0.0
10
173.61411358084698
20
-138.1387931436841
10
166.61511357737862
20
-150.2626931432431
10
154.48971357905091
20
-143.2639931465167
10
161.49021357783397
20
-131.13969314367404
0
LWPOLYLINE
5
108
100
AcDbEntity
8
0
100
AcDbPolyline
90
4
70
1
43
0.0
10
232.96901358002967
20
-241.99939635950062
10
237.75771357889383
20
-255.15549635810004
10
224.60281358279076
20
-259.94309635850539
10
219.81281357856898
20
-246.78829635895738
0
LWPOLYLINE
5
109
100
AcDbEntity
8
0
100
AcDbPolyline
90
4
70
1
43
0.0
10
150.65471357845024
20
-238.89489636023319
10
160.55311358003814
20
-248.79459635985299
10
150.65471358035296
20
-258.69319635860347
10
140.7548435810881
20
-248.79459636123499
0
LWPOLYLINE
5
110
100
AcDbEntity
8
0
100
AcDbPolyline
90
4
70
1
43
0.0
10
235.59291357883822
20
-130.68359314444976
10
248.74871357985782
20
-135.4724931438181
10
243.95971357907271
20
-148.62869314423955
10
230.80401357921286
20
-143.83969314565203
0
LWPOLYLINE
5
111
100
AcDbEntity
8
0
100
AcDbPolyline
90
4
70
1
43
0.0
10
212.90331357996399
20
-269.57529635944474
10
226.05951357987021
20
-264.78809635943458
10
230.84811358025459
20
-277.94279636168642
10
217.69191357837883
20
-282.73139635969034
0
LWPOLYLINE
5
112
100
AcDbEntity
8
0
100
AcDbPolyline
90
4
70
1
43
0.0
10
160.5531135800089
20
-158.10529314431074
10
150.65471357803102
20
-168.00499314415671
10
140.7548435810466
20
-158.10529314294095
10
150.6547135803238
20
-148.20669314556025
0
LWPOLYLINE
5
113
100
AcDbEntity
8
0
100
AcDbPolyline
90
4
70
1
43
0.0
10
221.7725135773959
20
-321.79209636034017
10
216.98391357958349
20
-308.63589635899103
10
230.14001358178334
20
-303.84719635876428
10
234.92721357867455
20
-317.00199635982381
0
LWPOLYLINE
5
114
100
AcDbEntity
8
0
100
AcDbPolyline
90
4
70
1
43
0.0
10
201.91221357921
20
-253.30339635850268
10
215.068313581636
20
-248.51479635884772
10
219.85691357968122
20
-261.67099636083708
10
206.70081357888049
20
-266.4581963596043
0
LWPOLYLINE
5
115
100
AcDbEntity
8
0
100
AcDbPolyline
90
4
70
1
43
0.0
10
208.82311357989082
20
-230.51509635924376
10
221.97921357814209
20
-225.72709636012485
10
226.76641357830121
20
-238.88219635591511
10
213.61171357862858
20
-243.67119636068344
0
LWPOLYLINE
5
116
100
AcDbEntity
8
0
100
AcDbPolyline
90
4
70
1
43
0.0
10
216.98391357958349
20
-98.263993145143601
10
221.7725135773959
20
-85.107793143794339
10
234.92721357867455
20
-89.897893144310842
10
230.14001358178334
20
-103.05269314537028
0
LWPOLYLINE
5
117
100
AcDbEntity
8
0
100
AcDbPolyline
90
4
70
1
43
0.0
10
230.84811358025459
20
-128.95709314244823
10
226.05951357987027
20
-142.11179314470004
10
212.90331357996399
20
-137.32459314468977
10
217.69191357837883
20
-124.1684931444442
0
LWPOLYLINE
5
118
100
AcDbEntity
8
0
100
AcDbPolyline
90
4
70
1
43
0.0
10
167.40061357711554
20
-295.10229636078083
10
163.77771358059064
20
-281.57959636141004
10
177.30031357932245
20
-277.95519635878145
10
180.92331357878689
20
-291.47789635689389
0
LWPOLYLINE
5
119
100
AcDbEntity
8
0
100
AcDbPolyline
90
4
70
1
43
0.0
10
177.80901357852176
20
-256.70309636008301
10
173.02041357927737
20
-243.54699635847825
10
186.17651357984971
20
-238.75839635994453
10
190.9651135790912
20
-251.91309635861589
0
LWPOLYLINE
5
120
100
AcDbEntity
8
0
100
AcDbPolyline
90
4
70
1
43
0.0
10
214.98681357880642
20
-303.98919635843288
10
201.83101358066367
20
-308.77649635934404
10
197.04211357904515
20
-295.6204963597587
10
210.19821358161727
20
-290.83299635879609
0
LWPOLYLINE
5
121
100
AcDbEntity
8
0
100
AcDbPolyline
90
4
70
1
43
0.0
10
199.78991357827476
20
-117.65299314428685
10
212.94601357962947
20
-122.44159314344016
10
208.15741358168083
20
-135.59779314463836
10
195.00271357841072
20
-130.80909314786805
0
LWPOLYLINE
5
122
100
AcDbEntity
8
0
100
AcDbPolyline
90
4
70
1
43
0.0
10
210.19821358161727
20
-116.06689314533853
10
197.04211357904515
20
-111.27939314437586
10
201.83101358066367
20
-98.123393144790498
10
214.98681357880642
20
-102.91069314570173
0
LWPOLYLINE
5
123
100
AcDbEntity
8
0
100
AcDbPolyline
90
4
70
1
43
0.0
10
252.8277135800713
20
-310.48799636040366
10
239.67271358179616
20
-315.27529635868382
10
234.88451357979415
20
-302.11919636121979
10
248.04071357781325
20
-297.33189635993187
0
LWPOLYLINE
5
124
100
AcDbEntity
8
0
100
AcDbPolyline
90
4
70
1
43
0.0
10
228.09891357882788
20
-122.58239314417089
10
214.9427135788909
20
-117.79479314539194
10
219.73171358183151
20
-104.63879314539614
10
232.88781357950612
20
-109.42729314456757
0
LWPOLYLINE
5
125
100
AcDbEntity
8
0
100
AcDbPolyline
90
4
70
1
43
0.0
10
213.61171357862858
20
-163.2286931434511
10
226.76641357830121
20
-168.01769314821942
10
221.97921357814209
20
-181.17279314400986
10
208.82311357989082
20
-176.38479314489086
0
LWPOLYLINE
5
126
100
AcDbEntity
8
0
100
AcDbPolyline
90
4
70
1
43
0.0
10
217.02661357863502
20
-323.51879635731001
10
203.87041358082439
20
-328.30605635939605
10
199.08291357915601
20
-315.15129635914656
10
212.23901358045697
20
-310.36259635929918
0
LWPOLYLINE
5
127
100
AcDbEntity
8
0
100
AcDbPolyline
90
4
70
1
43
0.0
10
230.80401357921286
20
-263.06019635848253
10
243.95971357907271
20
-258.2711963598951
10
248.74871357985779
20
-271.42739636031644
10
235.59291357883822
20
-276.2162963596848
0
LWPOLYLINE
5
128
100
AcDbEntity
8
0
100
AcDbPolyline
90
76
70
1
43
0.0
10
251.65436536393142
20
-271.99593466773246
10
245.81941109757392
20
-255.96382778149859
42
0.41421356247325419
10
244.53770674122961
20
-255.36613727213822
10
241.93799209222027
20
-256.31231460211291
42
-0.41421356237306212
10
240.65628773683986
20
-255.71462409240183
10
234.82858566138572
20
-239.70244331156721
42
0.41422623058088032
10
233.54684066229072
20
-239.10476759530624
10
230.95144900148063
20
-240.0494986818282
42
-0.41422623048074292
10
229.66970400295685
20
-239.4518229657233
10
223.56029757195688
20
-222.66563194772331
42
-0.087485119462201527
10
223.49999500438574
20
-222.32362502456726
10
223.49999500438571
20
-184.5762644795673
42
-0.08748511946220161
10
223.56029757195688
20
-184.23425755641125
10
229.66970400295685
20
-167.44806653841138
42
-0.41422623048072338
10
230.95144900148074
20
-166.85039082230645
10
233.5468406623857
20
-167.79512190856738
42
0.41422623058090474
10
234.82858566093145
20
-167.19744619240203
10
240.65628773683986
20
-151.18526541173276
42
-0.41421356237309814
10
241.93799209222044
20
-150.58757490202163
10
244.5377067413857
20
-151.53375223156743
42
0.41421356247326391
10
245.81941109693145
20
-150.93606172240214
10
251.6543653639153
20
-134.90395483639634
42
0.41420965342350641
10
251.05668739539851
20
-133.62225504553223
10
248.31143365057724
20
-132.62306664704116
42
-0.41962596161729687
10
247.72022780139656
20
-131.32408209057172
10
253.83424252114364
20
-115.44352184485932
42
0.4196487438652734
10
253.24296385867945
20
-114.1445107897602
10
250.49723507020877
20
-113.14539041905361
42
-0.41425640720611878
10
249.89951238463391
20
-111.86358694365795
10
255.73034884241002
20
-95.846887858576508
42
0.41419062691638797
10
255.13283719522161
20
-94.56516120401804
10
203.3111540313858
20
-75.695020149567696
42
0.41421356227288636
10
202.02935379495335
20
-76.292505006410224
10
196.1937176903858
20
-92.318484061567645
42
0.41431021591393685
10
196.79151263237708
20
-93.600397153591729
10
199.39075903739456
20
-94.545905052543503
42
-0.41429034603995069
10
199.98857718820827
20
-95.827754402502933
10
192.97674729752976
20
-115.08789179961994
42
-0.38885612727767865
10
191.77826249730674
20
-115.71172367886291
10
166.5902494343859
20
-108.96261591956758
42
0.41421356244888613
10
165.36550456302362
20
-109.66972270073845
10
160.53834184368125
20
-127.68493922564666
42
-0.06554346291993704
10
160.43844142097424
20
-127.92612018090722
10
151.03370154922425
20
-144.21560747047414
42
-0.065543462842280395
10
150.87478292657249
20
-144.42271425175403
10
137.899310815386
20
-157.39818636356742
42
0.41421356237310236
10
137.89931081519939
20
-158.81239992575394
10
150.36969499657252
20
-171.28278410738088
42
-0.19891236737965745
10
150.66258821538594
20
-171.9898908885674
10
150.66258821538594
20
-234.90999861556716
42
-0.19891236737963244
10
150.36969499657249
20
-235.61710539675374
10
137.89931081538595
20
-248.08748957856722
42
0.41421356237302881
10
137.89931081519939
20
-249.50170314075368
10
150.87478292657244
20
-262.47717525238056
42
-0.065543462842229019
10
151.03370154922425
20
-262.68428203366045
10
160.43844142097424
20
-278.97376932322743
42
-0.065543462677266739
10
160.53834184343123
20
-279.21495027755492
10
165.36550456238589
20
-297.23016680356704
42
0.4142135624489241
10
166.59024943446502
20
-297.93727358486223
10
191.77826249730663
20
-291.18816582527177
42
-0.38885612727769925
10
192.97674729752976
20
-291.81199770451479
10
199.98857718820827
20
-311.07213510163155
42
-0.41429034603998349
10
199.3907590373945
20
-312.35398445159092
10
196.79151263238583
20
-313.29949235056694
42
0.41431021591391359
10
196.1937176899533
20
-314.58140544272453
10
202.02935379538576
20
-330.60738449756678
42
0.41421356227294209
10
203.31115403138574
20
-331.20486935456682
10
255.1328371952082
20
-312.33472830007969
42
0.41419062691633207
10
255.7303488424588
20
-311.05300164554041
10
249.89951238463391
20
-295.03630256047649
42
-0.41425640730630059
10
250.49723507053011
20
-293.75449908496421
10
253.24296385836749
20
-292.7553787135173
42
0.41964874386532419
10
253.83424252037463
20
-291.45636765957124
10
247.72022780106136
20
-275.57580741269197
42
-0.41962596134282221
10
248.31143365057724
20
-274.27682285709341
10
251.05668739538561
20
-273.27763445856709
42
0.41420965342353927
0
LWPOLYLINE
5
129
100
AcDbEntity
8
0
100
AcDbPolyline
90
4
70
1
43
0.0
10
237.63371357740112
20
-295.74579636035486
10
232.84511358022087
20
-282.58959635916517
10
246.00171357648193
20
-277.80099636069389
10
250.7887135799362
20
-290.95719635891089
0
LWPOLYLINE
5
130
100
AcDbEntity
8
0
100
AcDbPolyline
90
4
70
1
43
0.0
10
228.0989135788279
20
-284.31749635996374
10
232.88781357950612
20
-297.47259635956698
10
219.73171358183151
20
-302.26109635873843
10
214.9427135788909
20
-289.10509635874268
0
LWPOLYLINE
5
131
100
AcDbEntity
8
0
100
AcDbPolyline
90
4
70
1
43
0.0
10
212.94601357962947
20
-284.45829636069436
10
199.78991357827476
20
-289.24689635984765
10
195.00271357841072
20
-276.09079635626648
10
208.15741358168071
20
-271.3020963594962
0
LWPOLYLINE
5
132
100
AcDbEntity
8
0
100
AcDbPolyline
90
4
70
1
43
0.0
10
237.75771357889383
20
-151.74439314603472
10
232.9690135800297
20
-164.90049314463397
10
219.81281357856898
20
-160.11159314517721
10
224.60281358279079
20
-146.95679314562912
0
LWPOLYLINE
5
133
100
AcDbEntity
8
0
100
AcDbPolyline
90
4
70
1
43
0.0
10
154.48971357883278
20
-263.63589635793608
10
166.61511357742611
20
-256.63719636124881
10
173.61411358027058
20
-268.7610963606391
10
161.49021357800603
20
-275.76019636021704
0
LWPOLYLINE
5
134
100
AcDbEntity
8
0
100
AcDbPolyline
90
4
70
1
43
0.0
10
208.86581358039311
20
-245.39909636181378
10
195.71101358069032
20
-250.18629635882775
10
190.921013580508
20
-237.03009636263675
10
204.07721357788276
20
-232.24309635948913
0
LWPOLYLINE
5
135
100
AcDbEntity
8
0
100
AcDbPolyline
90
4
70
1
43
0.0
10
208.86581358039311
20
-161.50079314232084
10
204.07721357788276
20
-174.65679314464555
10
190.92101358050803
20
-169.86979314149781
10
195.71101358069032
20
-156.7135931453069
0
LWPOLYLINE
5
136
100
AcDbEntity
8
0
100
AcDbPolyline
90
4
70
1
43
0.0
10
180.92331357880124
20
-115.42199314718715
10
177.30031357941041
20
-128.94469314518057
10
163.77771358027064
20
-125.32029314244969
10
167.40061357718716
20
-111.79759314308643
0
LWPOLYLINE
5
137
100
AcDbEntity
8
0
100
AcDbPolyline
90
4
70
1
43
0.0
10
190.9651135790912
20
-154.98679314551862
10
186.17651357984977
20
-168.14149314419009
10
173.02041357927737
20
-163.35289314565631
10
177.80901357852184
20
-150.19679314405158
0
LWPOLYLINE
5
138
100
AcDbEntity
8
0
100
AcDbPolyline
90
4
70
1
43
0.0
10
237.63371357740112
20
-111.15409314377969
10
250.7887135799362
20
-115.94269314522379
10
246.00171357648193
20
-129.09889314344076
10
232.84511358022087
20
-124.31029314496941
0
LWPOLYLINE
5
139
100
AcDbEntity
8
0
100
AcDbPolyline
90
58
70
1
43
0.0
10
231.56713462045172
20
-165.15896207163667
10
233.41074765495307
20
-165.8300432695018
10
238.96483235831903
20
-150.56965295046123
42
-0.41421356235428008
10
242.55360455332291
20
-148.89611952343924
10
244.40156125680977
20
-149.56869131487906
10
249.68930809830135
20
-135.04009028905608
10
247.69579861680003
20
-134.31451381003092
42
-0.41962596153660708
10
246.04042223981625
20
-130.67735705217925
10
251.86163009858194
20
-115.55733422898135
10
249.88173109951094
20
-114.83688527924537
42
-0.41425640736425451
10
248.20810757848074
20
-111.2478355476207
10
253.76529817814063
20
-95.982813069671877
10
203.44698422696069
20
-77.660102885231026
10
198.15889076611279
20
-92.182405771617681
10
200.00608472455698
20
-92.854345328880697
42
-0.41429034604589571
10
201.67997554688867
20
-96.443523508786484
10
194.66814565660206
20
-115.703660904827
42
-0.38885612722159668
10
191.31238821616438
20
-117.45039016619455
10
166.89711581425411
20
-110.90833764298
10
162.27700833100107
20
-128.15081350683312
42
-0.065543462915798212
10
161.99728714743301
20
-128.82612018151903
10
152.59254727602971
20
-145.11560747048546
42
-0.065543462823704171
10
152.14757513270843
20
-145.69550645788968
10
139.73778844645159
20
-158.1052931447461
10
151.64248720272124
20
-170.00999190125805
42
-0.19891236737796461
10
152.46258821538592
20
-171.98989088856749
10
152.46258821538595
20
-234.90999861556716
42
-0.19891236737963722
10
151.64248720270837
20
-236.88989760288945
10
139.73778844645125
20
-248.79459635974507
10
152.1475751327207
20
-261.20438304625725
42
-0.065543462840664882
10
152.59254727613305
20
-261.78428203382816
10
161.99728714777967
20
-278.0737693232162
42
-0.065543462615133011
10
162.27700833031281
20
-278.74907599473306
10
166.8971158137204
20
-295.99155186160436
10
191.31238821609264
20
-289.44949933795931
42
-0.3888561272853116
10
194.66814565678874
20
-291.19622859982042
10
201.67997554728055
20
-310.45636599642449
42
-0.41429034592014485
10
200.0060847246101
20
-314.04554417523434
10
198.15889076572699
20
-314.71748373267656
10
203.44698422735237
20
-329.23978661876026
10
253.76529817817382
20
-310.91707643440952
10
248.20810757822218
20
-295.65205395580381
42
-0.41425640722726326
10
249.88173109899023
20
-292.06300422507877
10
251.86163009760827
20
-291.34255527480775
10
246.04042223934863
20
-276.22253245074057
42
-0.4196259614805381
10
247.69579861752177
20
-272.58537569384094
10
249.68930809833748
20
-271.85979921503633
10
244.40156125731193
20
-257.33119818872746
10
242.55360455353934
20
-258.00376998061654
42
-0.41421356239718737
10
238.96483235825747
20
-256.33023655350434
10
233.41074765531852
20
-241.06984623428983
10
231.56713462053216
20
-241.74092743246865
42
-0.4142262304897032
10
227.97824862458495
20
-240.06743542740421
10
221.86884219342301
20
-223.28124440895905
42
-0.087485119419582133
10
221.6999950043857
20
-222.32362502456726
10
221.6999950043857
20
-184.5762644795673
42
-0.087485119462201916
10
221.86884219358501
20
-183.61864509473037
10
227.97824862442295
20
-166.83245407717564
42
-0.41422623053028296
0
LWPOLYLINE
5
140
100
AcDbEntity
8
0
100
AcDbPolyline
90
4
70
1
43
0.0
10
160.5531135800089
20
-158.10529314431074
10
150.65471357803102
20
-168.00499314415671
10
140.7548435810466
20
-158.10529314294095
10
150.6547135803238
20
-148.20669314556025
0
LINE
5
141
100
AcDbEntity
8
0
100
AcDbLine
10
174.95481850489202
20
-172.50273866403552
30
0
11
165.05641850291414
21
-182.40243866388147
31
0
0
LINE
5
142
100
AcDbEntity
8
0
100
AcDbLine
10
165.05641850520692
20
-162.60413866528501
30
0
11
174.95481850489202
21
-172.50273866403552
31
0
0
LINE
5
143
100
AcDbEntity
8
0
100
AcDbLine
10
155.15654850592972
20
-172.50273866266576
30
0
11
165.05641850520692
21
-162.60413866528501
31
0
0
LINE
5
144
100
AcDbEntity
8
0
100
AcDbLine
10
165.05641850291414
20
-182.40243866388147
30
0
11
155.15654850592972
21
-172.50273866266576
31
0
0
LWPOLYLINE
5
145
100
AcDbEntity
8
0
100
AcDbPolyline
90
4
70
1
43
0.0
10
150.65471358035296
20
-258.69319635860347
10
140.7548435810881
20
-248.79459636123499
10
150.65471357845024
20
-238.89489636023319
10
160.55311358003814
20
-248.79459635985299
0
LWPOLYLINE
5
146
100
AcDbEntity
8
0
100
AcDbPolyline
90
4
70
1
43
0.0
10
165.06015431319739
20
-244.28768108158062
10
155.16028431393249
20
-234.38908108421208
10
165.06015431129467
20
-224.4893810832103
10
174.95855431288254
20
-234.3890810828301
0
LWPOLYLINE
5
147
100
AcDbEntity
8
0
100
AcDbPolyline
90
4
70
1
43
0.0
10
171.69226294228724
20
-185.03413845546973
10
171.69226294228724
20
-222.03413845546973
10
205.69226294228724
20
-222.03413845546973
10
205.69226294228724
20
-185.03413845546973
0
LWPOLYLINE
5
148
100
AcDbEntity
8
0
100
AcDbPolyline
90
4
70
1
43
0.0
10
208.99226294228725
20
-225.33413845546974
10
208.99226294228725
20
-181.73413845546972
10
168.39226294228723
20
-181.73413845546972
10
168.39226294228723
20
-225.33413845546974
0
LINE
5
149
100
AcDbEntity
8
0
100
AcDbLine
10
171.69226294228724
20
-219.97829282591283
30
0
11
168.39226294228723
21
-219.97829282591283
31
0
0
LINE
5
150
100
AcDbEntity
8
0
100
AcDbLine
10
171.69226294228724
20
-194.99898350148837
30
0
11
168.39226294228723
21
-194.99898350148837
31
0
0
CIRCLE
5
151
100
AcDbEntity
8
0
100
AcDbCircle
10
207.08449327237363
20
-183.60735669391903
30
0
40
1.5999999999999945
210
0
220
0
230
1
0
CIRCLE
5
152
100
AcDbEntity
8
0
100
AcDbCircle
10
207.11688674399682
20
-223.39613238056677
30
0
40
1.5999999999999945
210
0
220
0
230
1
0
CIRCLE
5
153
100
AcDbEntity
8
0
100
AcDbCircle
10
170.30161000141698
20
-183.66411809475298
30
0
40
1.5999999999999945
210
0
220
0
230
1
0
CIRCLE
5
154
100
AcDbEntity
8
0
100
AcDbCircle
10
170.37180690638576
20
-223.38603880429201
30
0
40
1.5999999999999945
210
0
220
0
230
1
0
LINE
5
155
100
AcDbEntity
8
0
100
AcDbLine
10
228.49138536850609
20
-195.98531137071194
30
0
11
224.49138536850629
21
-195.98531137071194
31
0
0
LINE
5
156
100
AcDbEntity
8
0
100
AcDbLine
10
228.49138536850609
20
-209.0272236888656
30
0
11
224.49138536850637
21
-209.0272236888656
31
0
0
LINE
5
157
100
AcDbEntity
8
0
100
AcDbLine
10
224.49138536850629
20
-195.98531137071194
30
0
11
223.49999500438571
21
-195.98531137071194
31
0
0
LINE
5
158
100
AcDbEntity
8
0
100
AcDbLine
10
224.49138536850637
20
-209.0272236888656
30
0
11
223.49999500438571
21
-209.0272236888656
31
0
0
LINE
5
159
100
AcDbEntity
8
0
100
AcDbLine
10
223.49999500438571
20
-195.98531137071194
30
0
11
221.69999504461884
21
-195.98531137071194
31
0
0
LINE
5
160
100
AcDbEntity
8
0
100
AcDbLine
10
223.49999500438571
20
-209.0272236888656
30
0
11
221.6999950043857
21
-209.0272236888656
31
0
0
CIRCLE
5
161
100
AcDbEntity
8
0
100
AcDbCircle
10
207.08449327237363
20
-183.60735669391903
30
0
40
2.999999999999996
210
0
220
0
230
1
0
CIRCLE
5
162
100
AcDbEntity
8
0
100
AcDbCircle
10
170.30703267811009
20
-183.65034891835205
30
0
40
2.999999999999996
210
0
220
0
230
1
0
CIRCLE
5
163
100
AcDbEntity
8
0
100
AcDbCircle
10
207.08449327237363
20
-183.60735669391903
30
0
40
2.999999999999996
210
0
220
0
230
1
0
CIRCLE
5
164
100
AcDbEntity
8
0
100
AcDbCircle
10
170.37123814511205
20
-223.38295534020511
30
0
40
2.999999999999996
210
0
220
0
230
1
0
CIRCLE
5
165
100
AcDbEntity
8
0
100
AcDbCircle
10
207.11303840966838
20
-223.39343703043932
30
0
40
2.999999999999996
210
0
220
0
230
1
0
CIRCLE
5
166
100
AcDbEntity
8
0
100
AcDbCircle
10
235.93703508441266
20
-108.49227180915877
30
0
40
2.999999999999996
210
0
220
0
230
1
0
CIRCLE
5
167
100
AcDbEntity
8
0
100
AcDbCircle
10
185.3114299187726
20
-120.59093041354991
30
0
40
2.999999999999996
210
0
220
0
230
1
0
CIRCLE
5
168
100
AcDbEntity
8
0
100
AcDbCircle
10
185.02820654592821
20
-286.46155405119492
30
0
40
2.999999999999996
210
0
220
0
230
1
0
CIRCLE
5
169
100
AcDbEntity
8
0
100
AcDbCircle
10
235.94158801422552
20
-298.35152831759319
30
0
40
2.999999999999996
210
0
220
0
230
1
0
CIRCLE
5
170
100
AcDbEntity
8
0
100
AcDbCircle
10
235.94158801422552
20
-298.35152831759319
30
0
40
1.6000000000000165
210
0
220
0
230
1
0
CIRCLE
5
171
100
AcDbEntity
8
0
100
AcDbCircle
10
185.02820654592821
20
-286.46155405119492
30
0
40
1.6000000000000152
210
0
220
0
230
1
0
CIRCLE
5
172
100
AcDbEntity
8
0
100
AcDbCircle
10
185.3114299187726
20
-120.59093041354991
30
0
40
1.5999999999999928
210
0
220
0
230
1
0
CIRCLE
5
173
100
AcDbEntity
8
0
100
AcDbCircle
10
235.93703508441266
20
-108.49227180915877
30
0
40
1.5999999999999952
210
0
220
0
230
1
0
ENDSEC
0
SECTION
2
OBJECTS
0
DICTIONARY
5
C
100
AcDbDictionary
3
ACAD_GROUP
350
D
3
ACAD_MLINESTYLE
350
17
0
DICTIONARY
5
D
100
AcDbDictionary
0
DICTIONARY
5
1A
330
C
100
AcDbDictionary
0
DICTIONARY
5
17
100
AcDbDictionary
0
ENDSEC
0
EOF
