0
SECTION
2
HEADER
9
$INSUNITS
70
4
9
$ACADVER
1
AC1014
9
$HANDSEED
5
FFFF
0
ENDSEC
0
SECTION
2
TABLES
0
TABLE
2
VPORT
5
8
100
AcDbSymbolTable
0
ENDTAB
0
TABLE
2
LTYPE
5
5
100
AcDbSymbolTable
0
LTYPE
5
14
100
AcDbSymbolTableRecord
100
AcDbLinetypeTableRecord
2
BYBLOCK
70
0
0
LTYPE
5
15
100
AcDbSymbolTableRecord
100
AcDbLinetypeTableRecord
2
BYLAYER
70
0
0
ENDTAB
0
TABLE
2
LAYER
5
2
100
AcDbSymbolTable
70
2
0
LAYER
5
50
100
AcDbSymbolTableRecord
100
AcDbLayerTableRecord
2
0
70
0
6
CONTINUOUS
0
ENDTAB
0
TABLE
2
STYLE
5
3
100
AcDbSymbolTable
70
1
0
STYLE
5
11
100
AcDbSymbolTableRecord
100
AcDbTextStyleTableRecord
2
STANDARD
70
0
0
ENDTAB
0
TABLE
2
VIEW
5
6
100
AcDbSymbolTable
70
0
0
ENDTAB
0
TABLE
2
UCS
5
7
100
AcDbSymbolTable
70
0
0
ENDTAB
0
TABLE
2
APPID
5
9
100
AcDbSymbolTable
70
2
0
APPID
5
12
100
AcDbSymbolTableRecord
100
AcDbRegAppTableRecord
2
ACAD
70
0
0
ENDTAB
0
TABLE
2
DIMSTYLE
5
A
100
AcDbSymbolTable
70
1
0
ENDTAB
0
TABLE
2
BLOCK_RECORD
5
1
100
AcDbSymbolTable
70
1
0
BLOCK_RECORD
5
1F
100
AcDbSymbolTableRecord
100
AcDbBlockTableRecord
2
*MODEL_SPACE
0
BLOCK_RECORD
5
1B
100
AcDbSymbolTableRecord
100
AcDbBlockTableRecord
2
*PAPER_SPACE
0
ENDTAB
0
ENDSEC
0
SECTION
2
BLOCKS
0
BLOCK
5
20
100
AcDbEntity
100
AcDbBlockBegin
2
*MODEL_SPACE
0
ENDBLK
5
21
100
AcDbEntity
100
AcDbBlockEnd
0
BLOCK
5
1C
100
AcDbEntity
100
AcDbBlockBegin
2
*PAPER_SPACE
0
ENDBLK
5
1D
100
AcDbEntity
100
AcDbBlockEnd
0
ENDSEC
0
SECTION
2
ENTITIES
0
LWPOLYLINE
5
100
100
AcDbEntity
8
0
100
AcDbPolyline
90
4
70
1
43
0.0
10
-168.39226294228723
20
219.97829282591283
10
-168.39226294228723
20
194.99898350148837
10
-171.69226294228724
20
194.99898350148837
10
-171.69226294228724
20
219.97829282591283
0
LWPOLYLINE
5
101
100
AcDbEntity
8
0
100
AcDbPolyline
90
76
70
1
43
0.0
10
-253.23435422248789
20
292.7553787135173
42
0.41964874386532797
10
-253.82563288449501
20
291.45636765957124
10
-247.71161816518173
20
275.57580741269203
42
-0.4196259613428257
10
-248.30282401469762
20
274.27682285709341
10
-251.04807775950601
20
273.27763445856709
42
0.41420965342353927
10
-251.6457557280518
20
271.99593466773246
10
-245.8108014616943
20
255.96382778149859
42
0.41421356247325419
10
-244.52909710534999
20
255.36613727213822
10
-241.92938245634068
20
256.31231460211291
42
-0.41421356237306212
10
-240.64767810096026
20
255.71462409240183
10
-234.81997602550609
20
239.70244331156721
42
0.41422623058088032
10
-233.53823102641113
20
239.10476759530624
10
-230.94283936560103
20
240.04949868182817
42
-0.41422623048074292
10
-229.66109436707725
20
239.4518229657233
10
-223.55168793607731
20
222.66563194772331
42
-0.087485119462201472
10
-223.49138536850614
20
222.32362502456726
10
-223.49138536850614
20
184.5762644795673
42
-0.087485119462201583
10
-223.55168793607729
20
184.23425755641125
10
-229.66109436707725
20
167.44806653841138
42
-0.41422623048072338
10
-230.94283936560115
20
166.85039082230645
10
-233.53823102650608
20
167.79512190856738
42
0.41422623058088515
10
-234.81997602505186
20
167.19744619240208
10
-240.64767810096026
20
151.18526541173276
42
-0.41421356237309992
10
-241.92938245634082
20
150.58757490202166
10
-244.52909710550611
20
151.53375223156743
42
0.41421356247326391
10
-245.81080146105182
20
150.93606172240214
10
-251.64575572803571
20
134.90395483639634
42
0.41420965342350641
10
-251.04807775951889
20
133.62225504553223
10
-248.30282401469759
20
132.62306664704118
42
-0.41962596161729687
10
-247.71161816551697
20
131.32408209057172
10
-253.82563288526401
20
115.4435218448593
42
0.41964874386526674
10
-253.23435422279985
20
114.14451078976022
10
-250.48862543432918
20
113.14539041905363
42
-0.41425640720611567
10
-249.89090274875429
20
111.86358694365796
10
-255.72173920653043
20
95.846887858576508
42
0.41419062691638614
10
-255.12422755934199
20
94.565161204018068
10
-203.30254439550617
20
75.695020149567682
42
0.41421356227288342
10
-202.02074415907379
20
76.292505006410238
10
-196.1851080545062
20
92.318484061567645
42
0.41431021591393685
10
-196.78290299649746
20
93.600397153591729
10
-199.38214940151497
20
94.545905052543475
42
-0.4142903460399488
10
-199.97996755232865
20
95.827754402502933
10
-192.96813766165016
20
115.08789179961994
42
-0.38885612727767865
10
-191.76965286142715
20
115.71172367886291
10
-166.58163979850627
20
108.96261591956758
42
0.41421356244888613
10
-165.356894927144
20
109.66972270073845
10
-160.52973220780163
20
127.68493922564666
42
-0.065543462919937068
10
-160.42983178509462
20
127.92612018090722
10
-151.02509191334462
20
144.21560747047414
42
-0.065543462842274053
10
-150.8661732906929
20
144.42271425175403
10
-137.89070117950638
20
157.39818636356742
42
0.41421356237310236
10
-137.89070117931976
20
158.81239992575394
10
-150.3610853606929
20
171.28278410738088
42
-0.19891236737965742
10
-150.65397857950632
20
171.9898908885674
10
-150.65397857950634
20
234.90999861556716
42
-0.19891236737963239
10
-150.36108536069287
20
235.61710539675374
10
-137.89070117950632
20
248.08748957856722
42
0.41421356237301404
10
-137.89070117931973
20
249.50170314075365
10
-150.86617329069284
20
262.47717525238056
42
-0.065543462842229006
10
-151.02509191334462
20
262.68428203366045
10
-160.42983178509462
20
278.97376932322743
42
-0.065543462677266753
10
-160.52973220755163
20
279.21495027755492
10
-165.3568949265063
20
297.23016680356704
42
0.4142135624489241
10
-166.58163979858543
20
297.93727358486223
10
-191.76965286142703
20
291.18816582527182
42
-0.38885612727769925
10
-192.96813766165016
20
291.81199770451479
10
-199.97996755232865
20
311.0721351016316
42
-0.41429034603998349
10
-199.38214940151488
20
312.35398445159092
10
-196.78290299650624
20
313.29949235056694
42
0.41431021591391359
10
-196.18510805407368
20
314.58140544272453
10
-202.02074415950617
20
330.60738449756678
42
0.41421356227292522
10
-203.30254439550612
20
331.20486935456688
10
-255.1242275593286
20
312.33472830007969
42
0.41419062691633207
10
-255.72173920657917
20
311.05300164554041
10
-249.89090274875434
20
295.03630256047649
42
-0.41425640730630059
10
-250.48862543465049
20
293.75449908496421
0
LWPOLYLINE
5
102
100
AcDbEntity
8
0
100
AcDbPolyline
90
4
70
1
43
0.0
10
-201.95491357954342
20
138.71349314394178
10
-197.16771358077611
20
151.86959314474257
10
-184.01151357878683
20
147.08099314669738
10
-188.80011357844182
20
133.92489314427138
0
LWPOLYLINE
5
103
100
AcDbEntity
8
0
100
AcDbPolyline
90
4
70
1
43
0.0
10
-248.74871357985782
20
135.4724931438181
10
-243.95971357907271
20
148.62869314423955
10
-230.80401357921286
20
143.83969314565203
10
-235.59291357883822
20
130.68359314444976
0
LWPOLYLINE
5
104
100
AcDbEntity
8
0
100
AcDbPolyline
90
4
70
1
43
0.0
10
-248.74871357985779
20
271.42739636031644
10
-235.59291357883822
20
276.2162963596848
10
-230.80401357921286
20
263.06019635848253
10
-243.95971357907271
20
258.2711963598951
0
LWPOLYLINE
5
105
100
AcDbEntity
8
0
100
AcDbPolyline
90
4
70
1
43
0.0
10
-201.83101358066367
20
98.123393144790498
10
-214.98681357880642
20
102.91069314570173
10
-210.19821358161727
20
116.06689314533853
10
-197.04211357904515
20
111.27939314437586
0
LWPOLYLINE
5
106
100
AcDbEntity
8
0
100
AcDbPolyline
90
4
70
1
43
0.0
10
-237.75771357889383
20
255.15549635810004
10
-224.60281358279076
20
259.94309635850539
10
-219.81281357856898
20
246.78829635895738
10
-232.96901358002967
20
241.99939635950062
0
LWPOLYLINE
5
107
100
AcDbEntity
8
0
100
AcDbPolyline
90
4
70
1
43
0.0
10
-234.92721357867455
20
317.00199635982381
10
-221.7725135773959
20
321.79209636034017
10
-216.98391357958349
20
308.63589635899103
10
-230.14001358178334
20
303.84719635876428
0
LWPOLYLINE
5
108
100
AcDbEntity
8
0
100
AcDbPolyline
90
4
70
1
43
0.0
10
-206.70081357888049
20
140.44169314453023
10
-219.85691357968122
20
145.22889314329757
10
-215.06831358163609
20
158.38509314528687
10
-201.91221357921009
20
153.59649314563185
0
LWPOLYLINE
5
109
100
AcDbEntity
8
0
100
AcDbPolyline
90
4
70
1
43
0.0
10
-212.23901358045697
20
96.537293144835417
10
-199.08291357915601
20
91.748593144987964
10
-203.87041358082442
20
78.593833144738525
10
-217.02661357863505
20
83.381093146824554
0
LWPOLYLINE
5
110
100
AcDbEntity
8
0
100
AcDbPolyline
90
4
70
1
43
0.0
10
-217.69191357837883
20
124.1684931444442
10
-230.84811358025459
20
128.95709314244826
10
-226.05951357987027
20
142.11179314470004
10
-212.90331357996399
20
137.32459314468977
0
LWPOLYLINE
5
111
100
AcDbEntity
8
0
100
AcDbPolyline
90
4
70
1
43
0.0
10
-230.84811358025459
20
277.94279636168642
10
-217.69191357837883
20
282.73139635969034
10
-212.90331357996399
20
269.57529635944474
10
-226.05951357987021
20
264.78809635943458
0
LWPOLYLINE
5
112
100
AcDbEntity
8
0
100
AcDbPolyline
90
4
70
1
43
0.0
10
-219.73171358183151
20
104.63879314539614
10
-232.88781357950612
20
109.42729314456756
10
-228.09891357882788
20
122.58239314417089
10
-214.9427135788909
20
117.79479314539195
0
LWPOLYLINE
5
113
100
AcDbEntity
8
0
100
AcDbPolyline
90
4
70
1
43
0.0
10
-215.068313581636
20
248.51479635884772
10
-219.85691357968122
20
261.67099636083708
10
-206.70081357888049
20
266.4581963596043
10
-201.91221357921
20
253.30339635850268
0
LWPOLYLINE
5
114
100
AcDbEntity
8
0
100
AcDbPolyline
90
4
70
1
43
0.0
10
-230.14001358178334
20
103.05269314537028
10
-216.98391357958349
20
98.263993145143615
10
-221.7725135773959
20
85.107793143794339
10
-234.92721357867455
20
89.897893144310856
0
LWPOLYLINE
5
115
100
AcDbEntity
8
0
100
AcDbPolyline
90
4
70
1
43
0.0
10
-226.76641357830121
20
238.88219635591511
10
-213.61171357862858
20
243.67119636068344
10
-208.82311357989082
20
230.51509635924376
10
-221.97921357814209
20
225.72709636012485
0
LWPOLYLINE
5
116
100
AcDbEntity
8
0
100
AcDbPolyline
90
4
70
1
43
0.0
10
-226.76641357830121
20
168.01769314821942
10
-221.97921357814209
20
181.17279314400986
10
-208.82311357989082
20
176.38479314489086
10
-213.61171357862858
20
163.2286931434511
0
LWPOLYLINE
5
117
100
AcDbEntity
8
0
100
AcDbPolyline
90
4
70
1
43
0.0
10
-166.61511357737862
20
150.2626931432431
10
-154.48971357905091
20
143.2639931465167
10
-161.49021357783397
20
131.13969314367404
10
-173.61411358084698
20
138.1387931436841
0
LWPOLYLINE
5
118
100
AcDbEntity
8
0
100
AcDbPolyline
90
4
70
1
43
0.0
10
-234.88451357979415
20
302.11919636121979
10
-248.04071357781325
20
297.33189635993187
10
-252.8277135800713
20
310.48799636040366
10
-239.67271358179616
20
315.27529635868382
0
LWPOLYLINE
5
119
100
AcDbEntity
8
0
100
AcDbPolyline
90
4
70
1
43
0.0
10
-173.02041357927737
20
243.54699635847825
10
-186.17651357984971
20
238.75839635994453
10
-190.9651135790912
20
251.91309635861589
10
-177.80901357852176
20
256.70309636008301
0
LWPOLYLINE
5
120
100
AcDbEntity
8
0
100
AcDbPolyline
90
4
70
1
43
0.0
10
-195.00271357841072
20
130.80909314786808
10
-199.78991357827476
20
117.65299314428685
10
-212.94601357962947
20
122.44159314344017
10
-208.15741358168083
20
135.59779314463836
0
LWPOLYLINE
5
121
100
AcDbEntity
8
0
100
AcDbPolyline
90
4
70
1
43
0.0
10
-197.16771358077611
20
255.03029635939203
10
-201.95491357954339
20
268.18639636019282
10
-188.80011357844177
20
272.97499635986321
10
-184.01151357878675
20
259.81889635743727
0
LWPOLYLINE
5
122
100
AcDbEntity
8
0
100
AcDbPolyline
90
4
70
1
43
0.0
10
-210.19821358161727
20
290.83299635879609
10
-214.98681357880642
20
303.98919635843288
10
-201.83101358066367
20
308.77649635934404
10
-197.04211357904515
20
295.6204963597587
0
LWPOLYLINE
5
123
100
AcDbEntity
8
0
100
AcDbPolyline
90
4
70
1
43
0.0
10
-203.87041358082439
20
328.30605635939605
10
-199.08291357915601
20
315.15129635914656
10
-212.23901358045697
20
310.36259635929918
10
-217.02661357863502
20
323.51879635731001
0
LWPOLYLINE
5
124
100
AcDbEntity
8
0
100
AcDbPolyline
90
4
70
1
43
0.0
10
-234.88451357979415
20
104.78069314291477
10
-239.6727135817963
20
91.624593145450746
10
-252.8277135800713
20
96.411893143730936
10
-248.04071357781325
20
109.56799314420273
0
LWPOLYLINE
5
125
100
AcDbEntity
8
0
100
AcDbPolyline
90
4
70
1
43
0.0
10
-195.00271357841072
20
276.09079635626648
10
-208.15741358168071
20
271.3020963594962
10
-212.94601357962947
20
284.45829636069436
10
-199.78991357827476
20
289.24689635984765
0
LWPOLYLINE
5
126
100
AcDbEntity
8
0
100
AcDbPolyline
90
4
70
1
43
0.0
10
-166.61511357742611
20
256.63719636124881
10
-173.61411358027058
20
268.7610963606391
10
-161.49021357800603
20
275.76019636021704
10
-154.48971357883278
20
263.63589635793608
0
LWPOLYLINE
5
127
100
AcDbEntity
8
0
100
AcDbPolyline
90
4
70
1
43
0.0
10
-163.77771358027064
20
125.32029314244969
10
-167.40061357718716
20
111.79759314308643
10
-180.92331357880124
20
115.42199314718715
10
-177.30031357941041
20
128.94469314518057
0
LWPOLYLINE
5
128
100
AcDbEntity
8
0
100
AcDbPolyline
90
4
70
1
43
0.0
10
-224.60281358279079
20
146.95679314562912
10
-237.75771357889383
20
151.74439314603472
10
-232.9690135800297
20
164.90049314463397
10
-219.81281357856898
20
160.11159314517721
0
LWPOLYLINE
5
129
100
AcDbEntity
8
0
100
AcDbPolyline
90
4
70
1
43
0.0
10
-246.00171357648193
20
277.80099636069389
10
-250.7887135799362
20
290.95719635891089
10
-237.63371357740112
20
295.74579636035486
10
-232.84511358022087
20
282.58959635916517
0
LWPOLYLINE
5
130
100
AcDbEntity
8
0
100
AcDbPolyline
90
4
70
1
43
0.0
10
-180.92331357878689
20
291.47789635689389
10
-167.40061357711554
20
295.10229636078083
10
-163.77771358059064
20
281.57959636141004
10
-177.30031357932245
20
277.95519635878145
0
LWPOLYLINE
5
131
100
AcDbEntity
8
0
100
AcDbPolyline
90
4
70
1
43
0.0
10
-246.00171357648193
20
129.09889314344076
10
-232.84511358022087
20
124.31029314496939
10
-237.63371357740112
20
111.1540931437797
10
-250.7887135799362
20
115.94269314522379
0
LWPOLYLINE
5
132
100
AcDbEntity
8
0
100
AcDbPolyline
90
4
70
1
43
0.0
10
-195.71101358069032
20
156.7135931453069
10
-208.86581358039311
20
161.50079314232084
10
-204.07721357788276
20
174.65679314464555
10
-190.92101358050803
20
169.86979314149781
0
LWPOLYLINE
5
133
100
AcDbEntity
8
0
100
AcDbPolyline
90
4
70
1
43
0.0
10
-195.71101358069032
20
250.18629635882775
10
-190.921013580508
20
237.03009636263675
10
-204.07721357788276
20
232.24309635948913
10
-208.86581358039311
20
245.39909636181378
0
LWPOLYLINE
5
134
100
AcDbEntity
8
0
100
AcDbPolyline
90
4
70
1
43
0.0
10
-177.80901357852184
20
150.19679314405158
10
-190.9651135790912
20
154.98679314551862
10
-186.17651357984977
20
168.14149314419009
10
-173.02041357927737
20
163.35289314565631
0
LWPOLYLINE
5
135
100
AcDbEntity
8
0
100
AcDbPolyline
90
4
70
1
43
0.0
10
-214.9427135788909
20
289.10509635874268
10
-228.0989135788279
20
284.31749635996374
10
-232.88781357950612
20
297.47259635956698
10
-219.73171358183151
20
302.26109635873843
0
LWPOLYLINE
5
136
100
AcDbEntity
8
0
100
AcDbPolyline
90
4
70
1
43
0.0
10
-150.6547135803238
20
148.20669314556025
10
-160.5531135800089
20
158.10529314431074
10
-150.65471357803102
20
168.00499314415671
10
-140.7548435810466
20
158.10529314294095
0
LWPOLYLINE
5
137
100
AcDbEntity
8
0
100
AcDbPolyline
90
4
70
1
43
0.0
10
-165.05641850291414
20
182.40243866388147
10
-155.15654850592972
20
172.50273866266576
10
-165.05641850520692
20
162.60413866528501
10
-174.95481850489202
20
172.50273866403552
0
LWPOLYLINE
5
138
100
AcDbEntity
8
0
100
AcDbPolyline
90
4
70
1
43
0.0
10
-140.7548435810881
20
248.79459636123499
10
-150.65471357845024
20
238.89489636023319
10
-160.55311358003814
20
248.79459635985299
10
-150.65471358035296
20
258.69319635860347
0
LWPOLYLINE
5
139
100
AcDbEntity
8
0
100
AcDbPolyline
90
4
70
1
43
0.0
10
-155.16028431393249
20
234.38908108421208
10
-165.06015431129467
20
224.4893810832103
10
-174.95855431288254
20
234.3890810828301
10
-165.06015431319739
20
244.28768108158062
0
CIRCLE
5
140
100
AcDbEntity
8
0
100
AcDbCircle
10
-235.94206484522908
20
298.36228211417188
30
0
40
1.600000000000007
210
0
220
0
230
1
0
CIRCLE
5
141
100
AcDbEntity
8
0
100
AcDbCircle
10
-185.04634376059752
20
286.45820357772993
30
0
40
1.600000000000007
210
0
220
0
230
1
0
CIRCLE
5
142
100
AcDbEntity
8
0
100
AcDbCircle
10
-185.32111058706829
20
120.60136866627835
30
0
40
1.600000000000007
210
0
220
0
230
1
0
CIRCLE
5
143
100
AcDbEntity
8
0
100
AcDbCircle
10
-235.9219952773108
20
108.4976440208882
30
0
40
1.600000000000007
210
0
220
0
230
1
0
CIRCLE
5
144
100
AcDbEntity
8
0
100
AcDbCircle
10
-170.30161000141698
20
183.66411809475298
30
0
40
1.6000000000000014
210
0
220
0
230
1
0
CIRCLE
5
145
100
AcDbEntity
8
0
100
AcDbCircle
10
-170.37180690638576
20
223.38603880429201
30
0
40
1.6000000000000014
210
0
220
0
230
1
0
CIRCLE
5
146
100
AcDbEntity
8
0
100
AcDbCircle
10
-207.08449327237363
20
183.60735669391903
30
0
40
1.6000000000000014
210
0
220
0
230
1
0
CIRCLE
5
147
100
AcDbEntity
8
0
100
AcDbCircle
10
-207.11688674399682
20
223.39613238056677
30
0
40
1.6000000000000014
210
0
220
0
230
1
0
ENDSEC
0
SECTION
2
OBJECTS
0
DICTIONARY
5
C
100
AcDbDictionary
3
ACAD_GROUP
350
D
3
ACAD_MLINESTYLE
350
17
0
DICTIONARY
5
D
100
AcDbDictionary
0
DICTIONARY
5
1A
330
C
100
AcDbDictionary
0
DICTIONARY
5
17
100
AcDbDictionary
0
ENDSEC
0
EOF
